<svg xmlns="http://www.w3.org/2000/svg" width="18.543" height="18" viewBox="0 0 18.543 18">
    <defs>
        <style>
            .cls-1{fill:#fff}
        </style>
    </defs>
    <path id="Cart" d="M91.406 81.632H77.982l-.773-1.818a.635.635 0 0 0-.439-.37l-2.49-.586a.635.635 0 0 0-.291 1.236l2.177.512 5.574 13.1a2.1 2.1 0 1 0 3.761.211h2.287a2.1 2.1 0 1 0 1.933-1.28l-7.051.01-.87-2.044h9.607a.635.635 0 0 0 .635-.635v-7.701a.635.635 0 0 0-.636-.635zm-1.684 12.28a.83.83 0 1 1-.83.83.83.83 0 0 1 .83-.83zm-6.151 0a.83.83 0 1 1-.83.83.83.83 0 0 1 .83-.83zm7.2-8.428h-4.209a.635.635 0 0 0 0 1.27h4.209v2.582H81.26L78.522 82.9h12.249z" class="cls-1" transform="translate(-73.499 -78.841)"/>
</svg>
